<?xml version="1.0" encoding="utf-8"?>
<!-- Generator: Adobe Illustrator 24.1.1, SVG Export Plug-In . SVG Version: 6.00 Build 0)  -->
<svg version="1.1" id="Calque_1" xmlns="http://www.w3.org/2000/svg" xmlns:xlink="http://www.w3.org/1999/xlink" x="0px" y="0px"
	 viewBox="0 0 640 480" style="enable-background:new 0 0 640 480;" xml:space="preserve">
<style type="text/css">
	.st0{fill:url(#SVGID_1_);}
	.st1{opacity:0.2;}
	.st2{fill:#F8A942;}
	.st3{opacity:0.3;}
	.st4{fill:#F69423;}
	.st5{fill:#FFC892;}
	.st6{fill:#F2D39C;}
	.st7{opacity:0.1;fill:url(#SVGID_2_);}
	.st8{fill:url(#SVGID_3_);}
	.st9{opacity:0.3;fill:#F69423;}
	.st10{opacity:0.1;fill:url(#SVGID_4_);}
	.st11{opacity:0.1;fill:url(#SVGID_5_);}
	.st12{fill:none;}
	.st13{fill:#1A842E;}
</style>
<g>
	<linearGradient id="SVGID_1_" gradientUnits="userSpaceOnUse" x1="415.5356" y1="400.09" x2="406.3028" y2="113.1091">
		<stop  offset="0" style="stop-color:#8D2900"/>
		<stop  offset="1" style="stop-color:#FFC05D"/>
	</linearGradient>
	<path class="st0" d="M238.85,60.35l-25.72,14.27c0,0-9.27,68.68-0.03,69.98c9.24,1.3,22.3,4.54,22.3,4.54l-19.77,12.83v51.86
		c0,0,1.33,64.34,1.33,80.3c0,15.96,3.7,50.53,0.62,57.4c-3.08,6.87-5.42,49.82-5.42,49.82s48.88,7.9,90.11,12.28
		s127.39,4.38,158.18,4.38s97.64-5.67,107.82-4.38c10.18,1.29,38.9-12.28,38.9-12.28s-3.09-26.28-0.01-34.62
		c3.08-8.34-6.16-45.6,0-61.36c6.16-15.76,0.64-82.12,0.64-82.12H589.6l16-4.94c0,0,6.6-68.54,4.45-89.6
		c-2.15-21.06-4.45-52.65-4.45-54.59c0-1.94-10.84-17.49-10.84-17.49s-92.29-7.06-126.93-7.06c-34.64,0-159.93,0-159.93,0
		L238.85,60.35z"/>
	<path class="st1" d="M460.39,418.01c30.79,0,97.67-5.67,107.84-4.38c10.18,1.29,38.91-12.28,38.91-12.28s-46.18-21.63-56.07-23.17
		c-9.89-1.54-112.49-6.17-179.86-6.17c-67.38,0-110.42,9.25-130.62,9.25c-20.2,0-20.43,10.02-20.43,10.02l-8.21,10.07
		c0,0,48.98,7.9,90.21,12.28C343.4,418.01,429.6,418.01,460.39,418.01z"/>
	<path class="st2" d="M221.28,76.42c0,0-6.67,29.29-6.16,30.83c0.51,1.54-0.03,25.69-0.03,25.69h9.68l-9.68,2.32l12.86,5.96
		l11.43,7.61l-20.28,16.86v31.19c0,0,28.59-2.93,30.13-2.93c1.54,0,8.6,2.93,8.6,2.93s-26.23,2.73-32.39,2.73
		c-6.16,0-7.53,6.17-6.6,7.71c0.93,1.54-0.01,26.13-0.01,26.13l2.97,17.55c0,0,3.07,2.57,1.02,10.79c-2.05,8.22,0,13.36,0,16.96
		c0,3.6,1.54,21.58,1.54,21.58l12.04,2.06l-11.02,2.57c0,0-0.06,10.02,1.1,15.42c1.15,5.4,0.71,11.56,0.71,16.19
		c0,4.63,0,25.28,0,25.28s-5.6,9.41-5.6,12.1s-5.62,22.76-4.24,21.07c1.38-1.69,12.38,0.13,28.16,4.37
		c15.78,4.24,58.83,8.09,74.6,8.09c15.78,0,48.08,1.54,57.31,2.7c9.24,1.16,8.45-12.33,8.45-12.33s2.3,12.86,4.61,12.4
		c2.31-0.46,25.01,1.47,29.63,1.86c4.62,0.39,49.64,1.54,58.88,0c9.24-1.54,32.71-3.47,42.33-3.85c9.62-0.39,39.64-1.16,39.64-1.16
		s20.01-6.17,22.71-6.17s16.26-2.9,16.26-2.9s0.86-12.51,0-18.68c-0.86-6.17,0.38-16.19,0.38-16.19l-22.41-1.16l20.01-2.7
		c0,0,0.77-5.78,0-11.95c-0.77-6.17-2.69-8.86-2.31-16.19c0.38-7.32-0.38-18.89,0.77-22.74c1.15-3.85,5.19-15.03,3.94-20.04
		c-1.25-5.01-0.59-31.6,0.24-35.84c0.83-4.24,0-25.05,0-25.05l-24.57-2.31l24.94-10.41c0,0-1.23-18.5,0-31.22
		c1.23-12.72,2.38-27.36,2.38-27.36l-17.32-1.54l17.32-2.7c0,0,1.15-5.4,0-14.65c-1.15-9.25-3.85-25.05-3.85-30.06
		c0-5.01-0.38-16.57-1.15-20.43c-0.77-3.85-0.38-10.38-0.38-10.38l-8.85-15.82c0,0-60.04-2.31-73.12-1.93
		c-13.08,0.39-51.95-3.08-59.65-3.08c-7.7,0-112.76,5.4-121.23,4.62c-8.47-0.77-15.78-1.54-26.94-1.16
		c-11.16,0.39-40.41,2.7-49.26,5.78c-8.85,3.08-20.4,5.01-20.4,5.01L221.28,76.42z"/>
	<g class="st3">
		<path class="st4" d="M232.92,90.27c11.16,2.7,6.31,8.48,9.39,13.1c3.08,4.62,13.85,3.08,20.4,1.93c6.54-1.16,17.7-8.86,23.86-13.1
			c6.16-4.24,20.78-5.78,20.78-5.78s-18.47-0.77-23.48,2.31c-5,3.08-13.08,9.64-20.4,9.64c-7.31,0-8.85-3.47-7.7-8.48
			c1.15-5.01,8.08-4.37,17.83-9.27c9.75-4.9,27.71-4.35,43.1-1.74c15.39,2.61,26.68,2.02,51.31,0c24.63-2.02,24.12-5.51,41.42-5.51
			c17.3,0,53.93,0.53,53.93,0.53s38.07,0,62.7,0c24.63,0,47.21-0.1,60.04,3.53c5.11,1.44,8.94,1.65,11.72,1.5
			c0.03-1.43,0.08-2.46,0.08-2.46l-3.31-5.95c-13.29-0.14-45.05-2.46-53.64-2.46c-10.78,0-16.93-0.01-29.76-0.52
			c-12.83-0.51-18.47-1.03-35.41-1.03c-16.93,0-20.53-0.52-20.53-0.52s-48.75-3.08-51.31-3.08c-2.57,0-31.82,6.68-34.89,8.52
			c-3.08,1.84-34.9-4.41-46.18-5.44c-11.29-1.03-28.74,0-35.92,0c-7.18,0-11.81,4.62-17.97,8.21c-6.16,3.6-13.88,3.06-36.46,3.06
			c-4.5,0-8.24-0.13-11.36-0.32c-0.36,1.57-1.52,6.64-2.73,12.18C223.08,88.97,228.36,89.17,232.92,90.27z"/>
		<path class="st4" d="M215.33,116.13c2.84,0.26,5.7,0.54,7.48,0.73c4.62,0.51,8.21,4.11,17.45,5.65
			c9.24,1.54,25.14-2.06,39.51-5.14c14.37-3.08,26.17-3.08,26.17-3.08s17.96,3.08,28.32,3.08c10.36,0,24.53-5.14,36.84-5.14
			c12.32,0,31.81-7.71,50.29-14.01c18.47-6.3,29.25-2.43,48.75-5c19.5-2.57,36.43,0,49.77,0c13.34,0,31.3,5.14,61.57,5
			c8.4-0.04,14.01,0.15,17.76,0.45c-0.1-2.46-0.23-4.97-0.4-7.14c-7.4-0.5-31.81-2.23-37.88-3.97c-7.18-2.06-32.33-4.11-51.31-3.08
			c-18.99,1.03-13.85-0.52-31.3,0.21c-17.45,0.73-30.27-0.73-38.48,0c-8.21,0.73-21.68,0.94-27.45,2.1
			c-5.77,1.16-21.55,10.41-31.17,10.02c-9.62-0.39-22.32-3.85-34.25-4.63c-11.93-0.77-31.17,3.85-40.41,6.55
			c-9.24,2.7-14.24,6.55-25.01,9.61c-10.78,3.06-21.94,3.88-35.41,3.88s-10.78-2.7-16.16-5.73c-2.85-1.6-9.24-2.17-14.67-2
			c-0.2,1.26-0.28,2.1-0.21,2.33C215.32,107.44,215.36,111.47,215.33,116.13z M331.6,99.39c10.78-1.03,26.68-2.06,31.3,0
			c4.62,2.06,10.26,2.96,10.26,2.96s-14.88,4.74-23.6,6.29c-8.72,1.54-24.63,0-29.76,0c-5.13,0-15.39-2.13-15.39-2.13
			S320.82,100.42,331.6,99.39z"/>
		<path class="st4" d="M496.31,100.93c-13.85,0.51-26.68-1.03-36.43,0c-9.75,1.03-29.25,9.25-40.02,11.31
			c-10.78,2.06-37.97,7.71-37.97,7.71s18.7-0.51,27.57,0c8.87,0.51,27.34,1.54,34.52-2.57c7.18-4.11,9.24-12.49,24.63-10.87
			c15.39,1.62,30.79,1.25,44.64,4c13.85,2.76,27.71,0.19,39.51,2.76c11.8,2.57,36.94,7.17,41.05,7.18c1.47,0,4.21,0.01,7.11,0.01
			c-0.63-4.41-1.16-8.48-1.37-11.23c-4.5-0.49-12.75-1.35-28.32-2.72C531.2,102.99,510.16,100.42,496.31,100.93z"/>
		<path class="st4" d="M228.65,141.5c5.77,0.63,11.89,1.05,16.74,1.05c9.24,0,18.47-2.06,26.17-2.57c7.7-0.51,6.67-5.65,21.55-1.54
			c14.88,4.11,39.51,4.62,45.67,4.11c6.16-0.51,12.32-6.17,25.14-2.06c12.83,4.11,32.33,6.17,49.26,6.17
			c16.93,0,36.94-1.54,50.8-7.19c13.85-5.65,39.51-8.31,50.8-6.21c11.29,2.1,65.51,8.4,77.12,7.24c4.47-0.45,8.43-0.78,11.63-1.02
			c-0.07-0.71-0.14-1.43-0.24-2.2c-0.22-1.78-0.5-3.79-0.81-5.93c-9.8,0-25.95-0.57-45.12-3.71c-25.14-4.11-44.64-6.69-57.98-7.2
			c-13.34-0.51-22.58-1.83-33.35,2.43c-10.78,4.26-2.57,4.99-25.66,8.48c-23.09,3.49-54.9,3.19-69.78,0s-27.2-3.19-33.87-2.17
			c-6.67,1.03-35.41,8.32-43.1,4.67c-7.7-3.65-16.93-8.84-21.55-6.5c-4.62,2.34-31.72,10.27-39.51,7.51
			c-7.79-2.76-17.47-0.03-17.47-0.03l12.86,6.17L228.65,141.5z"/>
		<path class="st4" d="M519.4,146.67c-20.53,1.54-17.52-2.86-29.54,2.94c-12.02,5.8-15.61,9.39-33.06,9.39
			c-17.45,0-11.81,0.51-31.56,0s-25.4,2.51-40.28,0.23c-14.88-2.28-17.31-2.8-30.72-2.8s-27.78-0.51-35.99,0.51
			c-8.21,1.03-22.08-2.28-32.85-3.71c-10.77-1.43-19.49,0.92-28.73,0c-4.79-0.47-13.57-1.18-21.35-1.37l-9.57,7.91
			c1.05,0.09,2.12,0.19,3.21,0.32c12.31,1.48,22.58-1.99,40.02,0c17.45,1.99,21.3,1.99,39.9,4.56c18.6,2.57,38.41,2.57,55.18,2.57
			c16.78,0,26.24-4.11,45.37,0c19.13,4.11,25.8,4.11,46.84,4.11c21.04,0,30.79-4.11,40.54-8.22c9.75-4.11,18.47-4.91,21.55-4.26
			s15.39,1.91,30.79,0c15.39-1.91,36.23,1.17,42.74,2.2c2.89,0.46,7.13,0.61,10.94,0.64c0.28-3.36,0.45-5.52,0.45-5.52l-17.32-1.54
			l17.32-2.7c0,0,0.02-0.09,0.05-0.26c-4.8-0.68-12.65-1.41-24.42-1.41C556.86,150.27,539.92,145.13,519.4,146.67z"/>
		<path class="st4" d="M572.12,169.67c-18.09,0-28.09-3.47-41.56,0c-13.47,3.47-33.74,6.94-33.74,6.94s17.19,5.78,31.43,3.47
			c14.24-2.31,35.79-7.16,48.87-5.7c9,1.01,18.99,2.41,24.35,3.19c0.24-2.66,0.47-5.28,0.69-7.75
			C596.45,169.9,586.15,169.67,572.12,169.67z"/>
		<path class="st4" d="M234.3,195.31c5.94-0.13,11.65-0.77,17.36-0.68c0.09,0.03,0.17,0.05,0.26,0.08
			c6.29,0.13,12.59,0.51,19.26,1.43c13.47,1.85,25.01,5.12,37.71,5.12s42.11,0,42.11,0s28.32-5.12,38.32-7.82
			c10.01-2.7,11.13-5.34,22.5-5.34c11.37,0,32.92,5.43,55.62,7.74c22.71,2.31,37.71,6.25,49.64,5.64
			c11.93-0.61,28.09-2.15,32.33-2.53c4.23-0.39,22.72-1.92,36.84-1.92c5.59,0,10.37,0.71,14.12,1.57c-0.01-2.35,0.01-4.79,0.08-7.2
			c-8.41-3.46-12.97-6.88-37.71-4.23c-28.86,3.08-26.09,6.86-47.26,5.7c-21.17-1.16-31.13-4.27-46.53-6.78
			c-15.39-2.51-25-2.91-35-2.91c-10.01,0-19.23-3.86-32.32-0.01c-13.08,3.85-26.93,6.16-28.47,6.55
			c-1.54,0.39-27.96,1.54-34.38,1.92c-6.41,0.39-16.03,1.37-16.03,1.37s-26.17,0.17-32.71-1.75c-6.54-1.93-5.77-4.97-16.93-4.03
			c-11.16,0.94-10.78-0.94-19.63,0c-8.85,0.94-9.38-0.94-20.16,0c-5.73,0.5-10.75-0.01-14.22-0.35v8.7v1.3c0,0,6.41-0.67,13.48-1.38
			C233.23,195.43,233.65,195.37,234.3,195.31z M246.67,194.12c-2.73,0.38-7.46,1.02-12.27,1.17
			C239.21,194.82,243.94,194.36,246.67,194.12z"/>
		<path class="st4" d="M274.01,180.62c14.53,4.4,31.53-0.55,53.51,0c21.98,0.55,41.08-5.17,42.85-6.25c1.78-1.08-20.28,1.08-26.21,0
			c-5.93-1.08-34.88-2.01-39.38-3.04c-4.5-1.03-52.23-4.37-67.35-3.21c-6.35,0.49-13.73,0.9-18.35,1.32v10.64
			C231.81,179.03,262.49,177.13,274.01,180.62z"/>
		<path class="st4" d="M236.77,219.76c17.63-1.89,40.18,1.94,66.93-0.38c26.75-2.31,36.36,1.54,52.44,0
			c16.08-1.54,40.11-6.17,46.22-5.4c6.11,0.77,47.77-4.63,42.74-4.63c-5.03,0-41.92-6.94-52.74-4.63
			c-10.82,2.31-23.05,5.4-36.22,6.94c-13.17,1.54-29.16,2.31-41.66,2.31c-12.5,0-48.3-4.63-61.24-4.63c-8.04,0-23.1,1.19-34.05,2.46
			c0.06,2.95,0.01,6.92-0.07,10.65C224.01,221.5,230.04,220.48,236.77,219.76z"/>
		<path class="st4" d="M555.36,215.06c-32.04,1.39-56.64-1.47-71.68-0.08c-15.04,1.39-11.27,0.58-30.87,4.44
			c-19.6,3.85-37.41,8.46-50.44,6.15c-13.03-2.31-32.28,2.3-41.52-0.01c-9.24-2.31-31.7,0.56-40.48,0.66
			c-8.78,0.1-16.14-2.42-26.31,0c-10.18,2.42-7.21-3.18-23.32,0c-16.11,3.18-48.49,8.16-51.93,7.22h0l0.84,4.94
			c10.11-1.03,25.14-4.64,33.6-4.15c9.85,0.57,7,1.74,33.06,0c26.06-1.74,22.72,2.33,52.48,0.59c29.76-1.74,63.11-3.46,86.46-3.46
			s47.37,0,47.37,0s39.48-6.76,50.83-6.53c11.35,0.23,33-1.37,45.99-0.14c2.15,0.2,4.53,0.27,7.01,0.35l24.47-10.25
			c0,0-0.1-1.49-0.21-3.9C591.21,211.83,580.15,213.99,555.36,215.06z"/>
		<path class="st4" d="M581.08,236.43c-36.43-0.51-50.85,1.11-58.04,0.08c-7.18-1.03-29.27,0.85-40.56-0.07
			c-11.29-0.92-13.34,0.73-36.95,3.81c-23.61,3.08-39.02,2.68-51.33,2.68c-12.32,0-37.04,0-37.04,0s-25.65,2.82-31.25,2.82
			c-5.6,0-1.5,3.13,12.87,3.13c14.37,0,21.04-2.03,43.1,1.56c22.06,3.6,37.97,5.15,46.18,5.15c8.21,0,29.76-8.62,38.48-9.7
			c8.72-1.08,28.22-1.48,48.75,0c20.52,1.49,33.87-1.48,45.15,0c11.29,1.49,27.71,3.54,36.94,4.57c1.38,0.15,2.46,0.19,3.36,0.17
			c0.22-3.18,0.18-8.72,0.07-13.59C597.72,236.81,591.85,236.59,581.08,236.43z"/>
		<path class="st4" d="M564.81,255.62c-17.7-1.54-27.71,1.54-46.95,0c-19.24-1.54-28.48,3.85-42.33,4.63
			c-13.85,0.77-17.7,3.85-20.78,3.85c-3.08,0-22.32-0.77-33.87-4.63c-11.55-3.85-30.79,3.08-47.72,0c-16.93-3.08-24.63,0-34.38,0
			c-9.75,0-29.5-6.17-41.82-10.31c-12.31-4.15-40.79-2.02-51.57-3.25c-6.8-0.77-17.08,2.06-23.74,4.27l0.14,0.82
			c0,0,1.45,1.21,1.7,4.63l0,0c6.57-4.62,20.37-0.77,30.37,0c10.01,0.77,10.78,6.17,8.47,11.1c-2.31,4.93-21.55,5.86-33.87,6.63
			c-2.17,0.14-4.24,0.4-6.17,0.76c0.25,1.8,0.52,3.32,0.52,4.64c0,1.19,0.17,3.96,0.39,7.13c4.71-1.52,10.56-3.86,17.57-6.35
			c17.57-6.27,12.31-4.63,33.1-12.33c20.78-7.71,17.7-8.48,23.09-7.23c5.39,1.25,14.62-0.48,26.54,0
			c11.91,0.48,17.33,7.23,26.57,8.77c9.24,1.54,10.01,0,31.81,0c21.81,0,18.22,0.77,33.08,3.08c14.87,2.31,12.84,2.31,30.55,2.31
			c17.71,0,22.31-2.31,36.94-8.94s21.55-3.4,38.48-0.76c16.93,2.64,34.64-2.64,59.27-0.32c8.06,0.76,14.53,0.1,19.62-1.11
			c0.09-2.62,0.21-5,0.34-6.87C589.32,256.37,574.76,256.48,564.81,255.62z"/>
		<path class="st4" d="M330.83,295.7c-5.39,2.31-21.55,3.08-26.43,3.85s11.8,3.08,25.66,5.4c13.85,2.31,20.01-5.4,29.25-8.48
			c9.24-3.08-0.77-15.42-3.85-18.5c-3.08-3.08-37.71-2.31-54.65,0c-16.93,2.31-30.79,6.94-43.1,9.68
			c-8.08,1.8-23.89,5.03-33.82,7.04c0.26,3.22,0.47,5.63,0.47,5.63l10.96,1.87c10.04-1.93,20.83-4.02,23.16-4.95
			c3.85-1.54,20.78-6.17,33.87-9.59c13.08-3.42,24.63-2.74,36.94,0C341.6,290.39,336.21,293.39,330.83,295.7z"/>
		<path class="st4" d="M599.62,272.91c-9.86,0.89-22.48,1.84-33.27,3.02c-18.47,2.03-29.25-5.12-53.88,0
			c-24.63,5.12-26.94,5.12-40.02,7.43c-13.08,2.31-25.4,6.26-42.33,4.28c-16.93-1.97-48.23-5.06-48.23-5.06s3.84,3.24,21.8,8.17
			c17.96,4.93,39.51,5.7,52.6,5.7c13.08,0,23.35-3.7,42.08-5.7c18.73-2,32.58-2.68,41.05-3.12c8.47-0.43,32.33,0.43,41.56,0
			c4.69-0.22,12.56-0.22,19.17-0.16C599.72,284.74,599.58,279,599.62,272.91z"/>
		<path class="st4" d="M576.36,301.09c-35.41,0-50.8-1.67-70.81,2.25c-20.01,3.92-26.17,5.46-56.19,6.23
			c-30.02,0.77-56.96-4.21-63.11-4.42c-6.16-0.21-13.13-5.08-23.12,0.44c-9.98,5.52,2.33,10.92-27.68,11.69
			c-30.02,0.77-34.3-3.08-51.01-3.85c-16.72-0.77-15.95-3.85-32.88,0c-9.03,2.05-18.63,3.45-25.88,4.66
			c0.1,0.81,0.22,1.59,0.37,2.28c0.54,2.53,0.63,5.23,0.58,7.86c2.77,0.55,5.77,0.82,8.77,0.62c11.55-0.77,16.16-5.4,30.79-5.4
			c14.62,0,35.41,5.53,50.8,5.46c15.39-0.07,36.13,0.07,46.16,0c10.03-0.07,11.57-8.55,33.12-9.32c21.55-0.77,41.56,0,62.34,0
			c20.78,0,23.09-4.12,43.1-4.76c20.01-0.64,41.56,0.64,61.57,0c11.73-0.37,24.17-0.31,32.47-0.19c0.07-2.66,0.23-4.9,0.63-6.23
			c0.45-1.5,1.34-4.12,2.18-7.05C593.95,301.17,587.06,301.09,576.36,301.09z"/>
		<path class="st4" d="M595.63,330.51c-23.66,1.87-60.85,3.73-71.61,3.73c-13.85,0-19.24-3.77-40.79-2.65s-35.41,4.97-53.88,7.28
			c-18.47,2.31-15.39-2.31-44.64,0c-29.25,2.31-23.09-5.6-55.42,0.67s-42.66,6.27-57.29,6.27c-9.45,0-32.09-2.89-44.81-4.32
			c0,3.54,0,8.11,0,12.03c21.97,0.77,41.3,0,57.68,0s28.47-2.31,44.64-4.63c16.16-2.31,50.17,3.08,74.29,1.54
			c24.12-1.54,36.38-0.77,52.54-2.31c16.16-1.54,23.83-8.82,36.15-6.72c12.31,2.1,25.39-2.87,39.24,0c13.85,2.87,18.47-2.87,36.17,0
			c12.06,1.95,22.8,2.58,29.48,2.77c-0.88-4.17-2.09-7.07-1.77-13.01C595.61,330.95,595.62,330.73,595.63,330.51z"/>
		<path class="st4" d="M583.09,361.37c-29.61,0.08-47.91-0.2-74.55-0.12c-26.94,0.09-45.37,4.65-66.15,6.19
			c-20.78,1.54-24.61-0.8-65.4-0.03c-40.79,0.77-46.94,1.84-63.1,0.53s-17.26-6.76-39.58-6.74c-19.38,0.02-40.18-1.76-47.12-0.7
			c0,0.84,0,1.32,0,1.32s-5.6,9.41-5.6,12.1c0,0.23-0.26,0.58-0.33,1.03c5.77,0.72,12.28,0.65,18.09-0.64
			c13.85-3.08,15.34-3.85,34.58-3.85c19.24,0,21.52,2.2,46.92,4.96c25.4,2.75,20.77,1.98,52.32,3.52c31.56,1.54,34.63,0,51.56,0
			c16.93,0,40.02-2.58,49.26-4.12c9.24-1.54,7.18-3.35,24.37-3.35c17.19,0,48.14,0,48.14,0s43.31,3.47,53.13,4.63c0,0,0,0,0,0
			c-0.1-5.79,0.68-12.44,0.68-12.44l-22.41-1.41L583.09,361.37z"/>
		<path class="st4" d="M512.47,379.63c-20.01,3-42.33,3.94-56.19,7.02c-13.85,3.08-29.25,3.85-47.25,3.71
			c-18.01-0.15-44.34,4-70.25,4c-25.91,0-52.6,1.54-80.3,5.81c-1.88,0.29-3.66,0.59-5.36,0.88c17.25,3.17,46.61,5.83,62.26,6.33
			c1.08,0.03,2.07,0.06,3.01,0.07c0.54,0.02,1.08,0.04,1.66,0.07c0.42,0,0.89,0,1.33,0c16.29,0.69,29.61,0.89,46.87,1.87
			c0.74,0.07,1.47,0.15,2.16,0.23c2.91,0,5.32,0.39,6.98,0.6c1.71,0.21,3.07-0.05,4.16-0.66c-3.38,0.23-7.02,0.06-11.13,0.06
			c4.11,0,7.75,0.14,11.13-0.09c0.03-0.02,0.06-0.04,0.09-0.06c2.53-0.18,4.93-0.46,7.21-0.83c0,0,0,0.01,0.01,0.01
			c8.57-1.39,15.95-3.9,25.93-5.8c16.23-3.08,28.41-3.09,45.34-6.24c16.93-3.16,32.33-5.32,51.57-6.1
			c19.24-0.77,24.63,1.54,51.57,6.17c10.46,1.8,17.77,3.01,23.56,3.87c4.92-0.78,13.1-2.53,13.1-2.53s0.29-4.26,0.37-9.03
			c-2.05-0.13-4.16-0.37-6.23-0.79C582.51,385.89,532.48,376.64,512.47,379.63z M329.87,407.61c11.79,0.19,26.69,0.69,37.16,1.67
			C356.56,408.57,341.66,407.89,329.87,407.61z M385.87,398.69c0-0.52-0.02-0.83-0.02-0.83l0,0.01
			C385.86,397.93,385.88,398.21,385.87,398.69z"/>
	</g>
	<path class="st5" d="M214.79,104.77l6.34-28.49c0,0,21.63-8.56,23.17-8.82c1.54-0.26,17.23-4.59,17.23-4.59S292.1,60,296.2,59.72
		c4.1-0.28,24.88-0.74,30.73-0.24c5.85,0.51,16.46-1.83,18-1.83c1.54,0,62.14-2.29,64.81-2.29c2.67,0,55.17,0,55.17,0
		s-56.73,3.85-60.58,3.08c-3.85-0.77-53.49-0.08-54.65,0.69c-1.15,0.77-18.09,3.43-21.17,3.81c-3.08,0.39-20.78,0.37-28.09,0.37
		c-7.31,0-38.61,2.69-39.9,2.69c-1.28,0-16.42,4.36-16.42,4.36l-21.62,7.58L214.79,104.77z"/>
	<path class="st1" d="M257.01,84.71c0,0-3.8,49.07-3.89,61.96c-0.09,12.9-2.59,52.37-2.59,64.21c0,11.85,1.25,35.2,0,50.39
		c-1.25,15.18-2.57,48.82-3.85,61.15c-1.28,12.33-9.49,61.15-9.49,61.15s22.59,10.05,42.08,11.09c19.48,1.04,58.5,2,79.53,4.7
		c21.04,2.7,75.94,6.3,93.39,4.76s63.11-1.8,73.89-4.76s34.89-0.38,37.2-2.69s11.03-4.88,11.03-7.45c0-2.57-10.19-22.91-8.3-35.37
		c1.89-12.46-4.23-33.76-3.28-48.48c0.95-14.72,5.94-22.52,0.81-51.82c-5.13-29.29-16.93-84.28-17.45-104.83
		C545.57,128.17,257.01,84.71,257.01,84.71z"/>
	<path class="st6" d="M257.35,70.42c0,0-1.41,39.94,0.59,61.43c2,21.49-1.16,44.51-1.07,73.57c0.09,29.05,2.24,49.61,0,73.4
		c-2.24,23.79-10.82,100.81-10.82,100.81s59.89,10.88,92.73,14.74c32.84,3.85,148.52,6.99,167.26,3.5
		c18.74-3.5,64.52-9.66,64.52-9.66s-11.1-70.39-6.89-97.54c4.2-27.16,4.91-78.93,4.57-104c-0.34-25.08,2.56-67.6,0-82.88
		c-2.56-15.29-14.99-33.15-14.99-33.15s-71.46-8.71-102.34-7.81c-30.89,0.9-107.52,7.61-126.11,7.61
		C306.2,70.42,257.35,70.42,257.35,70.42z"/>
	<linearGradient id="SVGID_2_" gradientUnits="userSpaceOnUse" x1="407.07" y1="98.3564" x2="405.994" y2="43.267">
		<stop  offset="0" style="stop-color:#000000"/>
		<stop  offset="1" style="stop-color:#FFC05D"/>
	</linearGradient>
	<path class="st7" d="M296.69,50.94c0,0-4,19.67-2.33,19.67c1.67,0,2.56,35.97,2.56,35.97s8.85-3.55,19.24-2.78
		c10.39,0.76,44.95-0.32,54.24-2.52c9.28-2.21,18.92-5.39,33.16-5.39c14.24,0,50.58,0,50.58,0s41.79-2.15,49.48-1
		c7.7,1.16,13.47,1.35,13.47,1.35s1.38-13.11,2.04-16.24c0.66-3.13-2.33-15.48-2.09-17.05s1.67-11.03,1.67-11.03
		s-87.68-6.65-101.62-8.99C403.15,40.59,296.69,50.94,296.69,50.94z"/>
	<linearGradient id="SVGID_3_" gradientUnits="userSpaceOnUse" x1="407.3782" y1="88.2051" x2="405.8907" y2="12.0456">
		<stop  offset="0" style="stop-color:#E98200"/>
		<stop  offset="1" style="stop-color:#FFC05D"/>
	</linearGradient>
	<path class="st8" d="M299.2,17.64c0,0,87.5-6.23,114.94-6.63c27.44-0.4,104.99,6.63,104.99,6.63l-0.42,27.67l-10.48,2.2l10.48,4.39
		l-5.8,38.21c0,0-50.88-7.03-92.78-2.2c-41.9,4.83-117.72,10.75-117.72,10.75l-3.2-22.16l9.68-3.95l-9.68-2.99
		c0,0-4.28-35.22-3.78-36.54c0.5-1.32,5.99-3.95,5.99-3.95l-6.03-1.76l-2.45-7.03L299.2,17.64z"/>
	<path class="st1" d="M302.4,98.66c0,0,10.72-9.57,12-10.32c1.29-0.75,71.32-21.43,87.43-22.18c16.11-0.75,81.85,0.3,82.49,0
		c0.64-0.3,23.63,17.24,23.63,17.24l4.95,6.72c-35.47-4.08-68.9-5.5-98.24-1.58L302.4,98.66z"/>
	<path class="st2" d="M300.55,20.44c0,0,90.81-5.55,103.27-5.55c12.46,0,40.73-0.45,48.03,0c7.3,0.45,61.78,5.55,61.78,5.55v22.78
		l-14.01,4.35l14.26,5.1l-5.97,30.73c0,0-25.97-3-50.25-3.45c-24.27-0.45-57.13,2.7-68.52,4.95c-11.39,2.25-79.69,7.64-79.69,7.64
		l-1.72-14.99l14.82-7.79L304.74,66c0,0-3.65-32.98-3.22-33.58c0.43-0.6,6.66-6.15,6.66-6.15s-6.66-1.35-7.63-2.25
		S300.55,20.44,300.55,20.44z"/>
	<path class="st9" d="M456.19,53.61c-13.32-0.1-31.36,2.2-49.14,3.4c-17.78,1.2-37.22,0.3-48.82,3.3c-11.6,3-17.62,3.6-40.39,6.9
		c-1.61,0.23-3.12,0.43-4.56,0.6l9.29,1.95l-5.45,2.86c7.76-1.01,16.11-2.26,22.2-3.76c10.31-2.55,12.46-3.45,16.76-5.25
		c4.3-1.8,16.33-3,26.21-3c9.88,0,12.03,3.6,6.87,5.1c-5.16,1.5-17.19-0.3-19.76,0.9c-2.58,1.2,9.02,3,24.92,1.92
		c15.9-1.08,9.88-4.32,18.9-7.91c9.02-3.6,12.89-1.5,24.06-1.5c11.17,0,18.9,0,31.36,1.5c12.46,1.5,26.21,0.3,37.81-0.3
		c2.28-0.12,4.27-0.14,6.04-0.11l1-5.12c-3.08,0.35-6.37,0.66-9.62,0.74C491.42,56.11,469.51,53.71,456.19,53.61z"/>
	<path class="st9" d="M466.76,38.12c-15.9,0.3-11.95,2.4-18.82,5.7c-6.87,3.3-15.43,4.8-32.18,4.2c-16.76-0.6-29.62-0.6-44.56-0.6
		c-14.93,0-17.28,2.4-26.3,6.2c-8.61,3.62-28.53,2.07-41.16,3.22c0.16,1.49,0.31,2.88,0.44,4.11c1.76-0.1,3.6-0.21,5.5-0.33
		c13.75-0.9,19.33-2.4,26.64-3.36c7.3-0.96,15.9-1.44,24.06-3.64c8.16-2.2,15.04-2.3,34.37-2.3c19.33,0,29.65-0.3,42.96-0.9
		s21.48-0.3,32.65-0.3c11.17,0,27.07,0,34.31-0.8l0,0l-4.88-1.75l1.71-0.52c-3.29-0.14-6.48-0.38-8.8-0.82
		c-7.09-1.35-29.22,0-34.37-0.3c-5.16-0.3-1.29-2.1,4.3-3.6c5.59-1.5,20.46-0.9,32.06-0.9c6,0,12.51,0.08,18.95,0.16v-4.83
		C499.46,34.16,482.66,37.82,466.76,38.12z"/>
	<path class="st9" d="M466.93,75.9c-10.74,0-25.78,0-40.39,1.5c-14.61,1.5-17.62,3-25.78,3c-8.16,0-15.47,0.3-25.35,0.3
		c-9.88,0-23.63,0.6-39.1,3.9c-13.32,2.84-18.05,3.46-27.33,3.76l0.48,4.18c0,0,68.31-5.4,79.7-7.64
		c11.39-2.25,44.25-5.4,68.53-4.95c24.27,0.45,50.27,3.45,50.27,3.45l0.93-4.77c-1.06-0.22-2.14-0.44-3.3-0.63
		C493.14,75.9,477.67,75.9,466.93,75.9z"/>
	<path class="st9" d="M300.55,24.03c0.97,0.9,7.63,2.25,7.63,2.25s-1.22,1.09-2.61,2.35c7.74,0.2,16.45,0.5,25.17,0.5
		c19.33,0,21.91-1.8,29.65-3c7.73-1.2,23.2,0.9,33.08,0c9.88-0.9,24.06-1.2,29.64-1.23c5.59-0.03,32.22-2.37,40.82-2.37
		c8.59,0,27.38-2.96,41.08-0.6c3.19,0.55,6.06,0.92,8.64,1.17v-2.67c0,0-0.57-0.07-1.86-0.19c-13.28-0.48-38.61-1.31-53.95-1.31
		c-21.48,0-22.73,1.5-38.2,3.3c-15.47,1.8-36.07,0-54.97,1.8s-37.8,0.3-52.41,0c-4.24-0.09-8.32-0.71-12.12-1.57
		C300.09,23.08,300.18,23.69,300.55,24.03z"/>
	<path class="st9" d="M465.21,66c-17.62-0.3-24.06,0-39.1,0c-15.04,0-6.87,2.1-15.9,4.8c-9.02,2.7-19.76,2.4-37.97,2.4
		s-8.86,0.3-23.9,0.3c-15.04,0-15.9,2.1-28.36,5.7c-4.35,1.26-8.27,1.84-11.82,2.01l0.34,3.01c7.04-1.19,16.77-2.17,22.22-2.95
		c6.44-0.92,11.17-4.78,18.04-5.07c6.87-0.3,30.5,0,42.1-0.6c11.6-0.6,24.06-4.8,29.65-6.89c5.59-2.1,15.04,0,31.36,0
		s30.07,0.6,44.68,1.8c5.19,0.43,9.76,1.04,13.59,1.64l1.15-5.86c-2.96,0.01-6.05,0.02-9.15,0.02C485.83,66.3,482.83,66.3,465.21,66
		z"/>
	<path class="st9" d="M466.93,25.98c-16.33-1.65-24.92,2.25-38.67,4.35c-13.75,2.1-34.8,1.5-50.7,1.5c-15.9,0-18.47,0.6-21.91,1.5
		c-3.44,0.9-21.48,1.8-43.82,0.9c-4.07-0.16-7.45-0.22-10.3-0.2c0.06,1.03,0.18,2.5,0.34,4.25c5.53-0.16,11.62-0.15,16.4-0.46
		c9.45-0.6,14.61,0,26.64,0c12.03,0,14.61-2.4,20.62-3.6c6.01-1.2,16.76,0,24.49,0c7.73,0,21.91,0.6,25.35,2.4
		c3.44,1.8-5.16,3.9-8.76,3.9c-3.6,0-22.18,0.6-22.18,0.6s16.33,3,32.65,1.8c16.33-1.2,18.47-4.5,24.49-9.89
		c6.01-5.4,9.88-3.6,17.19-3.6c7.3,0,24.75,2.1,33.78,2.1c6.46,0,14.66,0.77,21.1,1.2v-4.5c-2.58-0.36-5.24-0.6-6.92-0.6
		C499.63,27.63,483.26,27.63,466.93,25.98z"/>
	<path class="st9" d="M361.24,41.72c0,0-27.5,0.3-39.53,2.1c-8.43,1.26-14.4,1.95-19.09,2.24c0.14,1.44,0.3,2.9,0.45,4.36
		c5.89-1.22,14.72-2.93,20.79-4.2C332.45,44.42,361.24,41.72,361.24,41.72z"/>
	<linearGradient id="SVGID_4_" gradientUnits="userSpaceOnUse" x1="543.837" y1="79.3445" x2="550.7251" y2="79.3445">
		<stop  offset="0" style="stop-color:#000000"/>
		<stop  offset="1" style="stop-color:#FFC05D"/>
	</linearGradient>
	<ellipse class="st10" cx="547.28" cy="79.34" rx="3.44" ry="3.45"/>
	<path d="M549.46,78.54c0,1.46-1.18,2.65-2.65,2.65c-1.46,0-2.65-1.19-2.65-2.65c0-1.46,1.18-2.65,2.65-2.65
		C548.28,75.9,549.46,77.08,549.46,78.54z"/>
	<linearGradient id="SVGID_5_" gradientUnits="userSpaceOnUse" x1="262.9343" y1="78.5446" x2="269.8224" y2="78.5446">
		<stop  offset="0" style="stop-color:#000000"/>
		<stop  offset="1" style="stop-color:#FFC05D"/>
	</linearGradient>
	<ellipse class="st11" cx="266.38" cy="78.54" rx="3.44" ry="3.45"/>
	<ellipse cx="265.92" cy="77.74" rx="2.65" ry="2.65"/>
</g>
<g>
	<rect x="351.82" y="46" class="st12" width="126.18" height="15"/>
	<path class="st13" d="M357.5,56.49h9.83c0.24,0,0.43-0.05,0.55-0.16s0.23-0.3,0.3-0.59h0.38v4.14h-0.38
		c-0.08-0.28-0.18-0.48-0.3-0.59s-0.31-0.16-0.55-0.16h-14.07v-0.38c0.28-0.08,0.48-0.18,0.59-0.3s0.16-0.31,0.16-0.55V44.36
		c0-0.24-0.05-0.43-0.16-0.55s-0.3-0.23-0.59-0.3v-0.38h4.99v0.38c-0.28,0.07-0.48,0.17-0.59,0.3s-0.16,0.31-0.16,0.56V56.49z"/>
	<path class="st13" d="M373.84,53.55v3.2h8.33c0.24,0,0.43-0.05,0.56-0.16c0.13-0.11,0.23-0.3,0.31-0.59h0.33v3.88h-0.33
		c-0.07-0.27-0.17-0.47-0.3-0.58s-0.32-0.17-0.56-0.17h-12.22V58.8c0.27-0.07,0.47-0.17,0.58-0.3s0.17-0.32,0.17-0.56V47.2
		c0-0.24-0.05-0.43-0.16-0.55s-0.3-0.23-0.59-0.32V46h11.86c0.25,0,0.44-0.05,0.57-0.16s0.23-0.3,0.31-0.59H383v3.88h-0.32
		c-0.08-0.28-0.18-0.48-0.31-0.59c-0.13-0.11-0.32-0.16-0.57-0.16h-7.97v2.88h4.95c0.24,0,0.43-0.05,0.56-0.16s0.24-0.3,0.32-0.59
		h0.32v3.79h-0.32c-0.08-0.28-0.18-0.47-0.31-0.58c-0.13-0.11-0.32-0.17-0.57-0.17H373.84z"/>
	<path class="st13" d="M395.88,52.64v5.27c0,0.23,0.06,0.42,0.17,0.54s0.31,0.23,0.58,0.3v0.38h-4.99v-0.38
		c0.28-0.08,0.48-0.18,0.59-0.3s0.16-0.3,0.16-0.54V44.36c0-0.24-0.05-0.43-0.16-0.55s-0.3-0.23-0.59-0.3v-0.38h9.98
		c1.16,0,2.09,0.08,2.77,0.23s1.29,0.43,1.81,0.81c0.54,0.4,0.96,0.92,1.27,1.57c0.3,0.67,0.46,1.38,0.46,2.13
		c0,1.08-0.29,2.02-0.87,2.84c-0.5,0.7-1.16,1.19-1.99,1.48s-1.97,0.44-3.45,0.44H395.88z M395.88,50h5.33
		c1.06,0,1.81-0.11,2.24-0.34c0.27-0.15,0.49-0.38,0.66-0.71s0.25-0.68,0.25-1.07c0-0.38-0.08-0.74-0.25-1.06s-0.39-0.56-0.66-0.71
		c-0.42-0.23-1.17-0.34-2.24-0.34h-5.33V50z"/>
	<path class="st13" d="M413.53,53.55v3.2h8.33c0.24,0,0.43-0.05,0.56-0.16c0.13-0.11,0.23-0.3,0.31-0.59h0.33v3.88h-0.33
		c-0.07-0.27-0.17-0.47-0.3-0.58s-0.32-0.17-0.56-0.17h-12.22V58.8c0.27-0.07,0.47-0.17,0.58-0.3s0.17-0.32,0.17-0.56V47.2
		c0-0.24-0.05-0.43-0.16-0.55s-0.3-0.23-0.59-0.32V46h11.86c0.25,0,0.44-0.05,0.57-0.16s0.23-0.3,0.31-0.59h0.32v3.88h-0.32
		c-0.08-0.28-0.18-0.48-0.31-0.59c-0.13-0.11-0.32-0.16-0.57-0.16h-7.97v2.88h4.95c0.24,0,0.43-0.05,0.56-0.16s0.24-0.3,0.32-0.59
		h0.32v3.79h-0.32c-0.08-0.28-0.18-0.47-0.31-0.58c-0.13-0.11-0.32-0.17-0.57-0.17H413.53z"/>
	<path class="st13" d="M428.65,50.48v7.44c0,0.24,0.06,0.43,0.17,0.56c0.11,0.13,0.31,0.24,0.58,0.32v0.33h-4.36V58.8
		c0.27-0.07,0.47-0.17,0.58-0.3s0.17-0.32,0.17-0.56V47.2c0-0.24-0.05-0.43-0.16-0.55s-0.3-0.23-0.59-0.32V46h5.04v0.33
		c-0.34,0.09-0.52,0.24-0.52,0.46c0,0.19,0.13,0.41,0.38,0.66l7.04,6.98V47.2c0-0.24-0.05-0.43-0.16-0.56s-0.3-0.23-0.59-0.31V46
		h4.36v0.33c-0.28,0.08-0.48,0.18-0.59,0.31c-0.11,0.13-0.16,0.31-0.16,0.56v10.72c0,0.24,0.05,0.43,0.16,0.56s0.3,0.24,0.59,0.32
		v0.33h-4.7V58.8c0.34-0.07,0.52-0.21,0.52-0.43c0-0.11-0.05-0.22-0.14-0.34s-0.31-0.35-0.64-0.69L428.65,50.48z"/>
	<path class="st13" d="M443.64,57.93V47.2c0-0.24-0.05-0.43-0.16-0.55s-0.3-0.23-0.59-0.32V46h7.7c1.6,0,2.86,0.2,3.79,0.6
		c1.3,0.56,2.23,1.49,2.8,2.79c0.4,0.91,0.6,1.96,0.6,3.18c0,2.24-0.67,3.94-2,5.1c-0.6,0.52-1.31,0.89-2.13,1.12
		s-1.83,0.35-3.05,0.35h-7.7V58.8c0.27-0.07,0.47-0.17,0.58-0.3S443.64,58.17,443.64,57.93z M446.78,56.75h3.35
		c1.54,0,2.66-0.35,3.35-1.05c0.73-0.73,1.09-1.78,1.09-3.13s-0.36-2.39-1.09-3.13c-0.36-0.37-0.8-0.63-1.34-0.8
		s-1.2-0.25-2.02-0.25h-3.35V56.75z"/>
	<path class="st13" d="M473.54,47.2v6.95c0,1.59-0.31,2.75-0.94,3.49c-1.01,1.18-2.91,1.77-5.7,1.77c-1.87,0-3.38-0.29-4.52-0.86
		c-0.83-0.41-1.39-1-1.7-1.77c-0.28-0.7-0.42-1.58-0.42-2.64V47.2c0-0.24-0.05-0.43-0.16-0.55s-0.3-0.23-0.59-0.32V46h4.64v0.33
		c-0.29,0.08-0.48,0.18-0.59,0.31c-0.11,0.13-0.16,0.31-0.16,0.56v6.32c0,0.73,0.06,1.3,0.19,1.69s0.35,0.71,0.67,0.96
		c0.64,0.51,1.57,0.76,2.78,0.76s2.14-0.25,2.78-0.76c0.31-0.25,0.53-0.57,0.66-0.96s0.19-0.95,0.19-1.69V47.2
		c0-0.24-0.05-0.43-0.16-0.55s-0.3-0.23-0.59-0.32V46h4.37v0.33c-0.28,0.08-0.48,0.18-0.59,0.31S473.54,46.96,473.54,47.2z"/>
</g>
<g>
</g>
<g>
</g>
<g>
</g>
<g>
</g>
<g>
</g>
<g>
</g>
<g>
</g>
<g>
</g>
<g>
</g>
<g>
</g>
<g>
</g>
<g>
</g>
<g>
</g>
<g>
</g>
<g>
</g>
</svg>
